solid OpenSCAD_Model
  facet normal 1 -0 0
    outer loop
      vertex 1.4 -2.5 34
      vertex 1.4 0 0
      vertex 1.4 0 34
    endloop
  endfacet
  facet normal 1 0 0
    outer loop
      vertex 1.4 0 0
      vertex 1.4 -2.5 34
      vertex 1.4 -2.5 0
    endloop
  endfacet
  facet normal 0 1 -0
    outer loop
      vertex 1.4 0 0
      vertex -8 0 34
      vertex 1.4 0 34
    endloop
  endfacet
  facet normal 0 1 0
    outer loop
      vertex -8 0 34
      vertex 1.4 0 0
      vertex -8 0 0
    endloop
  endfacet
  facet normal -1 0 0
    outer loop
      vertex -8 -1.4 0
      vertex -8 0 34
      vertex -8 0 0
    endloop
  endfacet
  facet normal -1 -0 0
    outer loop
      vertex -8 0 34
      vertex -8 -1.4 0
      vertex -8 -1.4 34
    endloop
  endfacet
  facet normal -1 0 0
    outer loop
      vertex -8 -5.5 0
      vertex -8 -3.1 34
      vertex -8 -3.1 0
    endloop
  endfacet
  facet normal -1 -0 0
    outer loop
      vertex -8 -3.1 34
      vertex -8 -5.5 0
      vertex -8 -5.5 34
    endloop
  endfacet
  facet normal 0 0 1
    outer loop
      vertex 1.4 0 34
      vertex 0 -1.4 34
      vertex 1.4 -2.5 34
    endloop
  endfacet
  facet normal -0 0 1
    outer loop
      vertex -8 0 34
      vertex 0 -1.4 34
      vertex 1.4 0 34
    endloop
  endfacet
  facet normal 0 0 1
    outer loop
      vertex 0 -1.4 34
      vertex -8 0 34
      vertex -8 -1.4 34
    endloop
  endfacet
  facet normal -0 0 1
    outer loop
      vertex 1.4 -2.5 34
      vertex 2.5 -4.5 34
      vertex 2.5 -2.5 34
    endloop
  endfacet
  facet normal 0 0 1
    outer loop
      vertex 0 -3.1 34
      vertex 1.4 -2.5 34
      vertex 0 -1.4 34
    endloop
  endfacet
  facet normal 0 0 1
    outer loop
      vertex 1.4 -2.5 34
      vertex 0 -3.1 34
      vertex 2.5 -4.5 34
    endloop
  endfacet
  facet normal 0 0 1
    outer loop
      vertex 0 -3.1 34
      vertex 0 -12.9 34
      vertex 2.5 -4.5 34
    endloop
  endfacet
  facet normal -0 0 1
    outer loop
      vertex -8 -5.5 34
      vertex 0 -12.9 34
      vertex 0 -3.1 34
    endloop
  endfacet
  facet normal 0 0 1
    outer loop
      vertex -8 -5.5 34
      vertex 0 -3.1 34
      vertex -8 -3.1 34
    endloop
  endfacet
  facet normal 0 0 1
    outer loop
      vertex 0 -12.9 34
      vertex -8 -5.5 34
      vertex -1 -14.6321 34
    endloop
  endfacet
  facet normal 0 0 1
    outer loop
      vertex -8 -5.5 34
      vertex -12.6913 -7.88205 34
      vertex -1 -14.6321 34
    endloop
  endfacet
  facet normal -0 0 1
    outer loop
      vertex -13.6255 -5.5 34
      vertex -12.6913 -7.88205 34
      vertex -8 -5.5 34
    endloop
  endfacet
  facet normal 0 0 1
    outer loop
      vertex -19.6734 -15.9753 34
      vertex -12.6913 -7.88205 34
      vertex -13.6255 -5.5 34
    endloop
  endfacet
  facet normal 0 0 1
    outer loop
      vertex -12.6913 -7.88205 34
      vertex -19.6734 -15.9753 34
      vertex -17.9413 -16.9753 34
    endloop
  endfacet
  facet normal 0 0 -1
    outer loop
      vertex -12.6913 -7.88205 0
      vertex -8 -5.5 0
      vertex -1 -14.6321 0
    endloop
  endfacet
  facet normal 0 0 -1
    outer loop
      vertex -12.6913 -7.88205 0
      vertex -13.6255 -5.5 0
      vertex -8 -5.5 0
    endloop
  endfacet
  facet normal 0 0 -1
    outer loop
      vertex -19.6734 -15.9753 0
      vertex -12.6913 -7.88205 0
      vertex -17.9413 -16.9753 0
    endloop
  endfacet
  facet normal -0 0 -1
    outer loop
      vertex -12.6913 -7.88205 0
      vertex -19.6734 -15.9753 0
      vertex -13.6255 -5.5 0
    endloop
  endfacet
  facet normal 0 0 -1
    outer loop
      vertex -8 -5.5 0
      vertex 0 -12.9 0
      vertex -1 -14.6321 0
    endloop
  endfacet
  facet normal 0 0 -1
    outer loop
      vertex 0 -12.9 0
      vertex -8 -5.5 0
      vertex 0 -3.1 0
    endloop
  endfacet
  facet normal -0 0 -1
    outer loop
      vertex 0 -3.1 0
      vertex -8 -5.5 0
      vertex -8 -3.1 0
    endloop
  endfacet
  facet normal 0 0 -1
    outer loop
      vertex 2.5 -4.5 0
      vertex 1.4 -2.5 0
      vertex 2.5 -2.5 0
    endloop
  endfacet
  facet normal 0 0 -1
    outer loop
      vertex 0 -3.1 0
      vertex 2.5 -4.5 0
      vertex 0 -12.9 0
    endloop
  endfacet
  facet normal 0 0 -1
    outer loop
      vertex 2.5 -4.5 0
      vertex 0 -3.1 0
      vertex 1.4 -2.5 0
    endloop
  endfacet
  facet normal 0 0 -1
    outer loop
      vertex 0 -1.4 0
      vertex 1.4 -2.5 0
      vertex 0 -3.1 0
    endloop
  endfacet
  facet normal 0 0 -1
    outer loop
      vertex 1.4 -2.5 0
      vertex 0 -1.4 0
      vertex 1.4 0 0
    endloop
  endfacet
  facet normal 0 0 -1
    outer loop
      vertex -8 0 0
      vertex 0 -1.4 0
      vertex -8 -1.4 0
    endloop
  endfacet
  facet normal 0 0 -1
    outer loop
      vertex 0 -1.4 0
      vertex -8 0 0
      vertex 1.4 0 0
    endloop
  endfacet
  facet normal -1 0 0
    outer loop
      vertex 0 -3.1 0
      vertex 0 -1.4 34
      vertex 0 -1.4 0
    endloop
  endfacet
  facet normal -1 -0 0
    outer loop
      vertex 0 -1.4 34
      vertex 0 -3.1 0
      vertex 0 -3.1 34
    endloop
  endfacet
  facet normal 0 1 -0
    outer loop
      vertex 0 -3.1 0
      vertex -8 -3.1 34
      vertex 0 -3.1 34
    endloop
  endfacet
  facet normal 0 1 0
    outer loop
      vertex -8 -3.1 34
      vertex 0 -3.1 0
      vertex -8 -3.1 0
    endloop
  endfacet
  facet normal 0 -1 0
    outer loop
      vertex -8 -1.4 0
      vertex 0 -1.4 34
      vertex -8 -1.4 34
    endloop
  endfacet
  facet normal 0 -1 -0
    outer loop
      vertex 0 -1.4 34
      vertex -8 -1.4 0
      vertex 0 -1.4 0
    endloop
  endfacet
  facet normal 0.866032 -0.499989 0
    outer loop
      vertex -1 -14.6321 34
      vertex 0 -12.9 0
      vertex 0 -12.9 34
    endloop
  endfacet
  facet normal 0.866032 -0.499989 0
    outer loop
      vertex 0 -12.9 0
      vertex -1 -14.6321 34
      vertex -1 -14.6321 0
    endloop
  endfacet
  facet normal 0.958452 -0.285254 0
    outer loop
      vertex 0 -12.9 34
      vertex 2.5 -4.5 0
      vertex 2.5 -4.5 34
    endloop
  endfacet
  facet normal 0.958452 -0.285254 0
    outer loop
      vertex 2.5 -4.5 0
      vertex 0 -12.9 34
      vertex 0 -12.9 0
    endloop
  endfacet
  facet normal 1 -0 0
    outer loop
      vertex 2.5 -4.5 34
      vertex 2.5 -2.5 0
      vertex 2.5 -2.5 34
    endloop
  endfacet
  facet normal 1 0 0
    outer loop
      vertex 2.5 -2.5 0
      vertex 2.5 -4.5 34
      vertex 2.5 -4.5 0
    endloop
  endfacet
  facet normal -0.500012 -0.866018 -0
    outer loop
      vertex -12.6913 -7.88205 11.5744
      vertex -12.6913 -7.88205 0
      vertex -11.827 -8.38107 10.6981
    endloop
  endfacet
  facet normal -0.500004 -0.866023 8.60735e-07
    outer loop
      vertex -12.6913 -7.88205 34
      vertex -11.827 -8.38107 23.3019
      vertex -1 -14.6321 34
    endloop
  endfacet
  facet normal -0.500012 -0.866018 0
    outer loop
      vertex -11.827 -8.38107 23.3019
      vertex -12.6913 -7.88205 34
      vertex -12.6913 -7.88205 22.4256
    endloop
  endfacet
  facet normal -0.500006 -0.866022 3.82128e-06
    outer loop
      vertex -11.0892 -8.80705 22.45
      vertex -1 -14.6321 34
      vertex -11.827 -8.38107 23.3019
    endloop
  endfacet
  facet normal -0.500003 -0.866024 0
    outer loop
      vertex -11.0892 -8.80705 11.55
      vertex -1 -14.6321 34
      vertex -11.0892 -8.80705 22.45
    endloop
  endfacet
  facet normal -0.500004 -0.866023 -8.60735e-07
    outer loop
      vertex -1 -14.6321 0
      vertex -11.827 -8.38107 10.6981
      vertex -12.6913 -7.88205 0
    endloop
  endfacet
  facet normal -0.500006 -0.866022 -3.82128e-06
    outer loop
      vertex -11.827 -8.38107 10.6981
      vertex -1 -14.6321 0
      vertex -11.0892 -8.80705 11.55
    endloop
  endfacet
  facet normal -0.500003 -0.866024 0
    outer loop
      vertex -11.0892 -8.80705 11.55
      vertex -1 -14.6321 0
      vertex -1 -14.6321 34
    endloop
  endfacet
  facet normal 0 1 -0
    outer loop
      vertex 2.5 -2.5 0
      vertex 1.4 -2.5 34
      vertex 2.5 -2.5 34
    endloop
  endfacet
  facet normal 0 1 0
    outer loop
      vertex 1.4 -2.5 34
      vertex 2.5 -2.5 0
      vertex 1.4 -2.5 0
    endloop
  endfacet
  facet normal -0.866026 0.499999 0
    outer loop
      vertex -19.6734 -15.9753 0
      vertex -13.6255 -5.5 34
      vertex -13.6255 -5.5 0
    endloop
  endfacet
  facet normal -0.866026 0.499999 0
    outer loop
      vertex -13.6255 -5.5 34
      vertex -19.6734 -15.9753 0
      vertex -19.6734 -15.9753 34
    endloop
  endfacet
  facet normal -0.499989 -0.866032 0
    outer loop
      vertex -19.6734 -15.9753 0
      vertex -17.9413 -16.9753 34
      vertex -19.6734 -15.9753 34
    endloop
  endfacet
  facet normal -0.499989 -0.866032 -0
    outer loop
      vertex -17.9413 -16.9753 34
      vertex -19.6734 -15.9753 0
      vertex -17.9413 -16.9753 0
    endloop
  endfacet
  facet normal 0.866026 -0.499998 0
    outer loop
      vertex -12.6913 -7.88205 34
      vertex -16.9413 -15.2433 22.4256
      vertex -12.6913 -7.88205 22.4256
    endloop
  endfacet
  facet normal 0.866019 -0.500011 0
    outer loop
      vertex -17.9413 -16.9753 34
      vertex -16.9413 -15.2433 22.2695
      vertex -16.9413 -15.2433 22.4256
    endloop
  endfacet
  facet normal 0.866019 -0.500011 0
    outer loop
      vertex -16.9413 -15.2433 22.2695
      vertex -17.9413 -16.9753 34
      vertex -16.9413 -15.2433 11.7305
    endloop
  endfacet
  facet normal 0.866019 -0.500011 0
    outer loop
      vertex -17.9413 -16.9753 0
      vertex -16.9413 -15.2433 11.7305
      vertex -17.9413 -16.9753 34
    endloop
  endfacet
  facet normal 0.866025 -0.500001 2.05709e-06
    outer loop
      vertex -17.9413 -16.9753 34
      vertex -16.9413 -15.2433 22.4256
      vertex -12.6913 -7.88205 34
    endloop
  endfacet
  facet normal 0.866026 -0.499998 0
    outer loop
      vertex -16.9413 -15.2433 11.5744
      vertex -12.6913 -7.88205 0
      vertex -12.6913 -7.88205 11.5744
    endloop
  endfacet
  facet normal 0.866025 -0.500001 -2.05709e-06
    outer loop
      vertex -16.9413 -15.2433 11.5744
      vertex -17.9413 -16.9753 0
      vertex -12.6913 -7.88205 0
    endloop
  endfacet
  facet normal 0.866019 -0.500011 0
    outer loop
      vertex -16.9413 -15.2433 11.7305
      vertex -17.9413 -16.9753 0
      vertex -16.9413 -15.2433 11.5744
    endloop
  endfacet
  facet normal 0.612357 -0.353543 -0.707125
    outer loop
      vertex -15.3392 -16.1683 11.55
      vertex -11.827 -8.38107 10.6981
      vertex -11.0892 -8.80705 11.55
    endloop
  endfacet
  facet normal 0.612353 -0.353542 -0.707129
    outer loop
      vertex -11.827 -8.38107 10.6981
      vertex -15.3392 -16.1683 11.55
      vertex -16.077 -15.7423 10.6981
    endloop
  endfacet
  facet normal 0.866026 -0.499998 0
    outer loop
      vertex -15.3392 -16.1683 22.45
      vertex -11.0892 -8.80705 11.55
      vertex -11.0892 -8.80705 22.45
    endloop
  endfacet
  facet normal 0.866026 -0.499998 0
    outer loop
      vertex -11.0892 -8.80705 11.55
      vertex -15.3392 -16.1683 22.45
      vertex -15.3392 -16.1683 11.55
    endloop
  endfacet
  facet normal 0.612357 -0.353543 0.707125
    outer loop
      vertex -11.827 -8.38107 23.3019
      vertex -15.3392 -16.1683 22.45
      vertex -11.0892 -8.80705 22.45
    endloop
  endfacet
  facet normal 0.612353 -0.353542 0.707129
    outer loop
      vertex -15.3392 -16.1683 22.45
      vertex -11.827 -8.38107 23.3019
      vertex -16.077 -15.7423 23.3019
    endloop
  endfacet
  facet normal -0.500011 -0.866019 1.85374e-05
    outer loop
      vertex -16.9413 -15.2433 22.4256
      vertex -15.3392 -16.1683 22.45
      vertex -16.077 -15.7423 23.3019
    endloop
  endfacet
  facet normal -0.500011 -0.866019 0
    outer loop
      vertex -15.3392 -16.1683 22.45
      vertex -16.9413 -15.2433 22.4256
      vertex -16.9413 -15.2433 22.2695
    endloop
  endfacet
  facet normal -0.571402 0.329899 -0.751443
    outer loop
      vertex -16.077 -15.7423 10.6981
      vertex -12.6913 -7.88205 11.5744
      vertex -11.827 -8.38107 10.6981
    endloop
  endfacet
  facet normal -0.571406 0.3299 -0.751439
    outer loop
      vertex -12.6913 -7.88205 11.5744
      vertex -16.077 -15.7423 10.6981
      vertex -16.9413 -15.2433 11.5744
    endloop
  endfacet
  facet normal -0.500011 -0.866019 0
    outer loop
      vertex -16.9413 -15.2433 11.7305
      vertex -15.3392 -16.1683 22.45
      vertex -16.9413 -15.2433 22.2695
    endloop
  endfacet
  facet normal -0.500011 -0.866019 -0
    outer loop
      vertex -15.3392 -16.1683 22.45
      vertex -16.9413 -15.2433 11.7305
      vertex -15.3392 -16.1683 11.55
    endloop
  endfacet
  facet normal -0.500011 -0.866019 0
    outer loop
      vertex -16.9413 -15.2433 11.5744
      vertex -15.3392 -16.1683 11.55
      vertex -16.9413 -15.2433 11.7305
    endloop
  endfacet
  facet normal -0.500011 -0.866019 -1.85374e-05
    outer loop
      vertex -15.3392 -16.1683 11.55
      vertex -16.9413 -15.2433 11.5744
      vertex -16.077 -15.7423 10.6981
    endloop
  endfacet
  facet normal -0.571402 0.329899 0.751443
    outer loop
      vertex -12.6913 -7.88205 22.4256
      vertex -16.077 -15.7423 23.3019
      vertex -11.827 -8.38107 23.3019
    endloop
  endfacet
  facet normal -0.571406 0.3299 0.751439
    outer loop
      vertex -16.077 -15.7423 23.3019
      vertex -12.6913 -7.88205 22.4256
      vertex -16.9413 -15.2433 22.4256
    endloop
  endfacet
  facet normal 0 1 -0
    outer loop
      vertex -8 -5.5 0
      vertex -13.6255 -5.5 34
      vertex -8 -5.5 34
    endloop
  endfacet
  facet normal 0 1 0
    outer loop
      vertex -13.6255 -5.5 34
      vertex -8 -5.5 0
      vertex -13.6255 -5.5 0
    endloop
  endfacet
endsolid OpenSCAD_Model
