solid OpenSCAD_Model
  facet normal 0.716726 -0 0.697355
    outer loop
      vertex 5.25 0 1.84999
      vertex 7.04999 12.2 0
      vertex 5.25 12.2 1.84999
    endloop
  endfacet
  facet normal 0.716726 0 0.697355
    outer loop
      vertex 7.04999 12.2 0
      vertex 5.25 0 1.84999
      vertex 7.04999 0 0
    endloop
  endfacet
  facet normal 0 -1 0
    outer loop
      vertex -3 0 0
      vertex -5.25 0 1.84999
      vertex -7.04999 0 0
    endloop
  endfacet
  facet normal 0 -1 0
    outer loop
      vertex -5.25 0 1.84999
      vertex -3 0 0
      vertex -3 0 1.84999
    endloop
  endfacet
  facet normal 0 -1 0
    outer loop
      vertex 3 0 0
      vertex 5.25 0 1.84999
      vertex 3 0 1.84999
    endloop
  endfacet
  facet normal 0 -1 -0
    outer loop
      vertex 5.25 0 1.84999
      vertex 3 0 0
      vertex 7.04999 0 0
    endloop
  endfacet
  facet normal 0 0 1
    outer loop
      vertex 5.25 12.2 1.84999
      vertex 3 2 1.84999
      vertex 5.25 0 1.84999
    endloop
  endfacet
  facet normal 0 0 1
    outer loop
      vertex 5.25 12.2 1.84999
      vertex -3 2 1.84999
      vertex 3 2 1.84999
    endloop
  endfacet
  facet normal -0 0 1
    outer loop
      vertex -5.25 12.2 1.84999
      vertex -3 2 1.84999
      vertex 5.25 12.2 1.84999
    endloop
  endfacet
  facet normal 0 0 1
    outer loop
      vertex -5.25 0 1.84999
      vertex -3 2 1.84999
      vertex -5.25 12.2 1.84999
    endloop
  endfacet
  facet normal 0 0 1
    outer loop
      vertex -3 2 1.84999
      vertex -5.25 0 1.84999
      vertex -3 0 1.84999
    endloop
  endfacet
  facet normal 0 0 1
    outer loop
      vertex 5.25 0 1.84999
      vertex 3 2 1.84999
      vertex 3 0 1.84999
    endloop
  endfacet
  facet normal 0 0 -1
    outer loop
      vertex -3 0 0
      vertex -7.04999 0 0
      vertex -3 2 0
    endloop
  endfacet
  facet normal 0 0 -1
    outer loop
      vertex 3 2 0
      vertex 7.04999 0 0
      vertex 3 0 0
    endloop
  endfacet
  facet normal 0 0 -1
    outer loop
      vertex 7.04999 0 0
      vertex 3 2 0
      vertex 7.04999 12.2 0
    endloop
  endfacet
  facet normal 0 0 -1
    outer loop
      vertex -3 2 0
      vertex 7.04999 12.2 0
      vertex 3 2 0
    endloop
  endfacet
  facet normal 0 0 -1
    outer loop
      vertex -7.04999 12.2 0
      vertex -3 2 0
      vertex -7.04999 0 0
    endloop
  endfacet
  facet normal 0 0 -1
    outer loop
      vertex -3 2 0
      vertex -7.04999 12.2 0
      vertex 7.04999 12.2 0
    endloop
  endfacet
  facet normal 0 1 0
    outer loop
      vertex 7.04999 12.2 0
      vertex -5.25 12.2 1.84999
      vertex 5.25 12.2 1.84999
    endloop
  endfacet
  facet normal 0 1 0
    outer loop
      vertex -5.25 12.2 1.84999
      vertex 7.04999 12.2 0
      vertex -7.04999 12.2 0
    endloop
  endfacet
  facet normal -0.716726 0 0.697355
    outer loop
      vertex -7.04999 0 0
      vertex -5.25 12.2 1.84999
      vertex -7.04999 12.2 0
    endloop
  endfacet
  facet normal -0.716726 0 0.697355
    outer loop
      vertex -5.25 12.2 1.84999
      vertex -7.04999 0 0
      vertex -5.25 0 1.84999
    endloop
  endfacet
  facet normal -1 0 0
    outer loop
      vertex 3 0 0
      vertex 3 2 1.84999
      vertex 3 2 0
    endloop
  endfacet
  facet normal -1 -0 0
    outer loop
      vertex 3 2 1.84999
      vertex 3 0 0
      vertex 3 0 1.84999
    endloop
  endfacet
  facet normal 1 -0 0
    outer loop
      vertex -3 0 1.84999
      vertex -3 2 0
      vertex -3 2 1.84999
    endloop
  endfacet
  facet normal 1 0 0
    outer loop
      vertex -3 2 0
      vertex -3 0 1.84999
      vertex -3 0 0
    endloop
  endfacet
  facet normal 0 -1 0
    outer loop
      vertex -3 2 0
      vertex 3 2 1.84999
      vertex -3 2 1.84999
    endloop
  endfacet
  facet normal 0 -1 -0
    outer loop
      vertex 3 2 1.84999
      vertex -3 2 0
      vertex 3 2 0
    endloop
  endfacet
endsolid OpenSCAD_Model
