solid OpenSCAD_Model
  facet normal -1 0 0
    outer loop
      vertex 57.5 10.3 3.9
      vertex 57.5 8.05 5.1
      vertex 57.5 10.3 5.1
    endloop
  endfacet
  facet normal -1 0 0
    outer loop
      vertex 57.5 1.6 3.9
      vertex 57.5 8.05 5.1
      vertex 57.5 10.3 3.9
    endloop
  endfacet
  facet normal -1 0 0
    outer loop
      vertex 57.5 1.6 9
      vertex 57.5 8.05 5.1
      vertex 57.5 1.6 3.9
    endloop
  endfacet
  facet normal -1 0 0
    outer loop
      vertex 57.5 8.05 5.1
      vertex 57.5 1.6 9
      vertex 57.5 8.05 9
    endloop
  endfacet
  facet normal -0 0 1
    outer loop
      vertex 1.6 27.5 3.4
      vertex 43.9 1.6 3.4
      vertex 43.9 27.5 3.4
    endloop
  endfacet
  facet normal 0 0 1
    outer loop
      vertex 43.9 1.6 3.4
      vertex 1.6 27.5 3.4
      vertex 1.6 1.6 3.4
    endloop
  endfacet
  facet normal 0 0 1
    outer loop
      vertex 43.9 27.5 3.4
      vertex 47.9 27.5 3.4
      vertex 47.9 28.4 3.4
    endloop
  endfacet
  facet normal 0 0 1
    outer loop
      vertex 47.9 27.5 3.4
      vertex 43.9 27.5 3.4
      vertex 47.9 1.6 3.4
    endloop
  endfacet
  facet normal 0 0 1
    outer loop
      vertex 43.9 27.5 3.4
      vertex 47.9 28.4 3.4
      vertex 43.9 28.4 3.4
    endloop
  endfacet
  facet normal 0 0 1
    outer loop
      vertex 43.9 1.6 3.4
      vertex 47.9 1.6 3.4
      vertex 43.9 27.5 3.4
    endloop
  endfacet
  facet normal 0 0 1
    outer loop
      vertex 47.9 1.6 3.4
      vertex 43.9 1.6 3.4
      vertex 47.9 0.7 3.4
    endloop
  endfacet
  facet normal 0 0 1
    outer loop
      vertex 47.9 0.7 3.4
      vertex 43.9 1.6 3.4
      vertex 43.9 0.7 3.4
    endloop
  endfacet
  facet normal -0 0 1
    outer loop
      vertex 47.9 27.5 3.4
      vertex 52.6 18.8 3.4
      vertex 52.6 27.5 3.4
    endloop
  endfacet
  facet normal 0 0 1
    outer loop
      vertex 52.6 18.8 3.4
      vertex 47.9 27.5 3.4
      vertex 52.6 10.3 3.4
    endloop
  endfacet
  facet normal 0 0 1
    outer loop
      vertex 47.9 1.6 3.4
      vertex 52.6 10.3 3.4
      vertex 47.9 27.5 3.4
    endloop
  endfacet
  facet normal 0 0 1
    outer loop
      vertex 52.6 10.3 3.4
      vertex 47.9 1.6 3.4
      vertex 52.6 1.6 3.4
    endloop
  endfacet
  facet normal -0 0 1
    outer loop
      vertex 52.6 18.8 3.4
      vertex 56.6 10.3 3.4
      vertex 56.6 18.8 3.4
    endloop
  endfacet
  facet normal 0 0 1
    outer loop
      vertex 56.6 10.3 3.4
      vertex 52.6 18.8 3.4
      vertex 52.6 10.3 3.4
    endloop
  endfacet
  facet normal 0 -0 0
    outer loop
      vertex 52.6 27.5 3.4
      vertex 56.6 27.5 3.4
      vertex 47.9 27.5 3.4
    endloop
  endfacet
  facet normal 0 0 0
    outer loop
      vertex 56.6 27.5 3.4
      vertex 56.6 27.5 3.9
      vertex 56.6 27.5 9
    endloop
  endfacet
  facet normal -1 0 0
    outer loop
      vertex 56.6 10.3 3.9
      vertex 56.6 18.8 3.9
      vertex 56.6 18.8 3.4
    endloop
  endfacet
  facet normal -1 0 0
    outer loop
      vertex 56.6 10.3 3.9
      vertex 56.6 18.8 3.4
      vertex 56.6 10.3 3.4
    endloop
  endfacet
  facet normal -1 0 0
    outer loop
      vertex 56.6 18.8 3.9
      vertex 56.6 10.3 3.9
      vertex 56.6 18.8 5.1
    endloop
  endfacet
  facet normal -1 -0 0
    outer loop
      vertex 56.6 18.8 5.1
      vertex 56.6 10.3 3.9
      vertex 56.6 10.3 5.1
    endloop
  endfacet
  facet normal 0 1 -0
    outer loop
      vertex 56.6 10.3 3.4
      vertex 52.6 10.3 3.9
      vertex 56.6 10.3 3.9
    endloop
  endfacet
  facet normal 0 1 0
    outer loop
      vertex 52.6 10.3 3.9
      vertex 56.6 10.3 3.4
      vertex 52.6 10.3 3.4
    endloop
  endfacet
  facet normal 0 -1 0
    outer loop
      vertex 56.6 10.3 3.9
      vertex 57.5 10.3 5.1
      vertex 56.6 10.3 5.1
    endloop
  endfacet
  facet normal 0 -1 -0
    outer loop
      vertex 57.5 10.3 5.1
      vertex 56.6 10.3 3.9
      vertex 57.5 10.3 3.9
    endloop
  endfacet
  facet normal 0 1 0
    outer loop
      vertex 52.6 1.6 3.9
      vertex 57.5 1.6 9
      vertex 57.5 1.6 3.9
    endloop
  endfacet
  facet normal 0 1 0
    outer loop
      vertex 57.5 1.6 9
      vertex 52.6 1.6 3.9
      vertex 47.9 1.6 9
    endloop
  endfacet
  facet normal 0 1 0
    outer loop
      vertex 47.9 1.6 3.4
      vertex 52.6 1.6 3.9
      vertex 52.6 1.6 3.4
    endloop
  endfacet
  facet normal 0 1 0
    outer loop
      vertex 52.6 1.6 3.9
      vertex 47.9 1.6 3.4
      vertex 47.9 1.6 9
    endloop
  endfacet
  facet normal 0 1 -0
    outer loop
      vertex 43.9 1.6 3.4
      vertex 1.6 1.6 9
      vertex 43.9 1.6 9
    endloop
  endfacet
  facet normal 0 1 0
    outer loop
      vertex 1.6 1.6 9
      vertex 43.9 1.6 3.4
      vertex 1.6 1.6 3.4
    endloop
  endfacet
  facet normal -1 0 0
    outer loop
      vertex 57.5 27.5 3.9
      vertex 57.5 21.05 5.1
      vertex 57.5 27.5 9
    endloop
  endfacet
  facet normal -1 0 0
    outer loop
      vertex 57.5 18.8 3.9
      vertex 57.5 21.05 5.1
      vertex 57.5 27.5 3.9
    endloop
  endfacet
  facet normal -1 -0 0
    outer loop
      vertex 57.5 21.05 5.1
      vertex 57.5 18.8 3.9
      vertex 57.5 18.8 5.1
    endloop
  endfacet
  facet normal -1 -0 0
    outer loop
      vertex 57.5 27.5 9
      vertex 57.5 21.05 5.1
      vertex 57.5 21.05 9
    endloop
  endfacet
  facet normal 0 1 -0
    outer loop
      vertex 56.6 27.5 3.4
      vertex 52.6 27.5 3.9
      vertex 56.6 27.5 3.9
    endloop
  endfacet
  facet normal 0 1 0
    outer loop
      vertex 52.6 27.5 3.9
      vertex 56.6 27.5 3.4
      vertex 52.6 27.5 3.4
    endloop
  endfacet
  facet normal 0 -1 0
    outer loop
      vertex 56.6 27.5 3.9
      vertex 57.5 27.5 9
      vertex 56.6 27.5 9
    endloop
  endfacet
  facet normal 0 -1 -0
    outer loop
      vertex 57.5 27.5 9
      vertex 56.6 27.5 3.9
      vertex 57.5 27.5 3.9
    endloop
  endfacet
  facet normal 0 -1 0
    outer loop
      vertex 52.6 18.8 3.4
      vertex 56.6 18.8 3.9
      vertex 52.6 18.8 3.9
    endloop
  endfacet
  facet normal 0 -1 -0
    outer loop
      vertex 56.6 18.8 3.9
      vertex 52.6 18.8 3.4
      vertex 56.6 18.8 3.4
    endloop
  endfacet
  facet normal 0 1 -0
    outer loop
      vertex 57.5 18.8 3.9
      vertex 56.6 18.8 5.1
      vertex 57.5 18.8 5.1
    endloop
  endfacet
  facet normal 0 1 0
    outer loop
      vertex 56.6 18.8 5.1
      vertex 57.5 18.8 3.9
      vertex 56.6 18.8 3.9
    endloop
  endfacet
  facet normal -1 0 0
    outer loop
      vertex 47.9 0.7 3.4
      vertex 47.9 1.6 9
      vertex 47.9 1.6 3.4
    endloop
  endfacet
  facet normal -1 -0 0
    outer loop
      vertex 47.9 1.6 9
      vertex 47.9 0.7 3.4
      vertex 47.9 0.7 9
    endloop
  endfacet
  facet normal 1 -0 0
    outer loop
      vertex 43.9 0.7 9
      vertex 43.9 1.6 3.4
      vertex 43.9 1.6 9
    endloop
  endfacet
  facet normal 1 0 0
    outer loop
      vertex 43.9 1.6 3.4
      vertex 43.9 0.7 9
      vertex 43.9 0.7 3.4
    endloop
  endfacet
  facet normal 0 1 -0
    outer loop
      vertex 47.9 0.7 3.4
      vertex 43.9 0.7 9
      vertex 47.9 0.7 9
    endloop
  endfacet
  facet normal 0 1 0
    outer loop
      vertex 43.9 0.7 9
      vertex 47.9 0.7 3.4
      vertex 43.9 0.7 3.4
    endloop
  endfacet
  facet normal -1 0 0
    outer loop
      vertex 47.9 27.5 3.4
      vertex 47.9 28.4 9
      vertex 47.9 28.4 3.4
    endloop
  endfacet
  facet normal -1 -0 0
    outer loop
      vertex 47.9 28.4 9
      vertex 47.9 27.5 3.4
      vertex 47.9 27.5 9
    endloop
  endfacet
  facet normal 1 -0 0
    outer loop
      vertex 43.9 27.5 9
      vertex 43.9 28.4 3.4
      vertex 43.9 28.4 9
    endloop
  endfacet
  facet normal 1 0 0
    outer loop
      vertex 43.9 28.4 3.4
      vertex 43.9 27.5 9
      vertex 43.9 27.5 3.4
    endloop
  endfacet
  facet normal 0 -1 0
    outer loop
      vertex 43.9 28.4 3.4
      vertex 47.9 28.4 9
      vertex 43.9 28.4 9
    endloop
  endfacet
  facet normal 0 -1 -0
    outer loop
      vertex 47.9 28.4 9
      vertex 43.9 28.4 3.4
      vertex 47.9 28.4 3.4
    endloop
  endfacet
  facet normal -0.744959 0 0.667111
    outer loop
      vertex 34.609 0 0
      vertex 36.4 12.5 2
      vertex 34.609 12.5 0
    endloop
  endfacet
  facet normal -0.744959 0 0.667111
    outer loop
      vertex 36.4 12.5 2
      vertex 34.609 0 0
      vertex 36.4 0 2
    endloop
  endfacet
  facet normal 0.744959 -0 0.667111
    outer loop
      vertex 21.8 0 2
      vertex 23.591 12.5 0
      vertex 21.8 12.5 2
    endloop
  endfacet
  facet normal 0.744959 0 0.667111
    outer loop
      vertex 23.591 12.5 0
      vertex 21.8 0 2
      vertex 23.591 0 0
    endloop
  endfacet
  facet normal 0 0 -1
    outer loop
      vertex 21.8 0 2
      vertex 36.4 12.5 2
      vertex 36.4 0 2
    endloop
  endfacet
  facet normal -0 0 -1
    outer loop
      vertex 36.4 12.5 2
      vertex 21.8 0 2
      vertex 21.8 12.5 2
    endloop
  endfacet
  facet normal 0 -1 0
    outer loop
      vertex 23.591 12.5 0
      vertex 36.4 12.5 2
      vertex 21.8 12.5 2
    endloop
  endfacet
  facet normal 0 -1 0
    outer loop
      vertex 36.4 12.5 2
      vertex 23.591 12.5 0
      vertex 34.609 12.5 0
    endloop
  endfacet
  facet normal 0.744959 -0 0.667111
    outer loop
      vertex 21.8 16.6 2
      vertex 23.591 29.1 0
      vertex 21.8 29.1 2
    endloop
  endfacet
  facet normal 0.744959 0 0.667111
    outer loop
      vertex 23.591 29.1 0
      vertex 21.8 16.6 2
      vertex 23.591 16.6 0
    endloop
  endfacet
  facet normal -0.744959 0 0.667111
    outer loop
      vertex 34.609 16.6 0
      vertex 36.4 29.1 2
      vertex 34.609 29.1 0
    endloop
  endfacet
  facet normal -0.744959 0 0.667111
    outer loop
      vertex 36.4 29.1 2
      vertex 34.609 16.6 0
      vertex 36.4 16.6 2
    endloop
  endfacet
  facet normal 0 0 -1
    outer loop
      vertex 21.8 16.6 2
      vertex 36.4 29.1 2
      vertex 36.4 16.6 2
    endloop
  endfacet
  facet normal -0 0 -1
    outer loop
      vertex 36.4 29.1 2
      vertex 21.8 16.6 2
      vertex 21.8 29.1 2
    endloop
  endfacet
  facet normal 0 1 -0
    outer loop
      vertex 34.609 16.6 0
      vertex 21.8 16.6 2
      vertex 36.4 16.6 2
    endloop
  endfacet
  facet normal 0 1 0
    outer loop
      vertex 21.8 16.6 2
      vertex 34.609 16.6 0
      vertex 23.591 16.6 0
    endloop
  endfacet
  facet normal 0 -0.707107 0.707106
    outer loop
      vertex 8.73 0 6.60603
      vertex 49.47 0.593969 7.2
      vertex 8.73 0.593969 7.2
    endloop
  endfacet
  facet normal 0 -0.707107 0.707106
    outer loop
      vertex 49.47 0.593969 7.2
      vertex 8.73 0 6.60603
      vertex 49.47 0 6.60603
    endloop
  endfacet
  facet normal 0 -0.707107 -0.707106
    outer loop
      vertex 8.73 0.593969 7.2
      vertex 49.47 0 7.79397
      vertex 8.73 0 7.79397
    endloop
  endfacet
  facet normal 0 -0.707107 -0.707106
    outer loop
      vertex 49.47 0 7.79397
      vertex 8.73 0.593969 7.2
      vertex 49.47 0.593969 7.2
    endloop
  endfacet
  facet normal -1 0 0
    outer loop
      vertex 49.47 0 7.79397
      vertex 49.47 0.593969 7.2
      vertex 49.47 0 6.60603
    endloop
  endfacet
  facet normal 1 0 0
    outer loop
      vertex 8.73 0.593969 7.2
      vertex 8.73 0 7.79397
      vertex 8.73 0 6.60603
    endloop
  endfacet
  facet normal 0 0.707089 -0.707125
    outer loop
      vertex 49.47 28.506 7.2
      vertex 8.73 29.1 7.79397
      vertex 49.47 29.1 7.79397
    endloop
  endfacet
  facet normal 0 0.707089 -0.707125
    outer loop
      vertex 8.73 29.1 7.79397
      vertex 49.47 28.506 7.2
      vertex 8.73 28.506 7.2
    endloop
  endfacet
  facet normal -1 0 -0
    outer loop
      vertex 49.47 29.1 7.79397
      vertex 49.47 29.1 6.60603
      vertex 49.47 28.506 7.2
    endloop
  endfacet
  facet normal 1 0 -0
    outer loop
      vertex 8.73 29.1 6.60603
      vertex 8.73 29.1 7.79397
      vertex 8.73 28.506 7.2
    endloop
  endfacet
  facet normal 0 0.707089 0.707125
    outer loop
      vertex 49.47 29.1 6.60603
      vertex 8.73 28.506 7.2
      vertex 49.47 28.506 7.2
    endloop
  endfacet
  facet normal 0 0.707089 0.707125
    outer loop
      vertex 8.73 28.506 7.2
      vertex 49.47 29.1 6.60603
      vertex 8.73 29.1 6.60603
    endloop
  endfacet
  facet normal 1 0 0
    outer loop
      vertex 58.2 8.05 9
      vertex 58.2 0 9
      vertex 58.2 8.05 5.1
    endloop
  endfacet
  facet normal 1 0 0
    outer loop
      vertex 58.2 21.05 5.1
      vertex 58.2 29.1 9
      vertex 58.2 21.05 9
    endloop
  endfacet
  facet normal 1 0 0
    outer loop
      vertex 58.2 29.1 9
      vertex 58.2 21.05 5.1
      vertex 58.2 29.1 0
    endloop
  endfacet
  facet normal 1 -0 0
    outer loop
      vertex 58.2 8.05 5.1
      vertex 58.2 29.1 0
      vertex 58.2 21.05 5.1
    endloop
  endfacet
  facet normal 1 0 0
    outer loop
      vertex 58.2 8.05 5.1
      vertex 58.2 0 0
      vertex 58.2 29.1 0
    endloop
  endfacet
  facet normal 1 0 0
    outer loop
      vertex 58.2 0 0
      vertex 58.2 8.05 5.1
      vertex 58.2 0 9
    endloop
  endfacet
  facet normal 0 0 1
    outer loop
      vertex 58.2 29.1 9
      vertex 57.5 27.5 9
      vertex 58.2 21.05 9
    endloop
  endfacet
  facet normal 0 0 1
    outer loop
      vertex 58.2 29.1 9
      vertex 56.6 27.5 9
      vertex 57.5 27.5 9
    endloop
  endfacet
  facet normal 0 0 1
    outer loop
      vertex 58.2 29.1 9
      vertex 47.9 28.4 9
      vertex 56.6 27.5 9
    endloop
  endfacet
  facet normal 0 0 1
    outer loop
      vertex 58.2 29.1 9
      vertex 43.9 28.4 9
      vertex 47.9 28.4 9
    endloop
  endfacet
  facet normal 0 0 1
    outer loop
      vertex 43.9 28.4 9
      vertex 1.6 27.5 9
      vertex 43.9 27.5 9
    endloop
  endfacet
  facet normal -0 0 1
    outer loop
      vertex 0 29.1 9
      vertex 43.9 28.4 9
      vertex 58.2 29.1 9
    endloop
  endfacet
  facet normal 0 0 1
    outer loop
      vertex 1.6 27.5 9
      vertex 0 29.1 9
      vertex 1.6 1.6 9
    endloop
  endfacet
  facet normal 0 0 1
    outer loop
      vertex 43.9 28.4 9
      vertex 0 29.1 9
      vertex 1.6 27.5 9
    endloop
  endfacet
  facet normal 0 0 1
    outer loop
      vertex 58.2 21.05 9
      vertex 57.5 27.5 9
      vertex 57.5 21.05 9
    endloop
  endfacet
  facet normal 0 0 1
    outer loop
      vertex 56.6 27.5 9
      vertex 47.9 28.4 9
      vertex 47.9 27.5 9
    endloop
  endfacet
  facet normal 0 0 1
    outer loop
      vertex 43.9 1.6 9
      vertex 1.6 1.6 9
      vertex 43.9 0.7 9
    endloop
  endfacet
  facet normal 0 0 1
    outer loop
      vertex 57.5 1.6 9
      vertex 58.2 8.05 9
      vertex 57.5 8.05 9
    endloop
  endfacet
  facet normal 0 0 1
    outer loop
      vertex 58.2 8.05 9
      vertex 57.5 1.6 9
      vertex 58.2 0 9
    endloop
  endfacet
  facet normal 0 0 1
    outer loop
      vertex 47.9 0.7 9
      vertex 57.5 1.6 9
      vertex 47.9 1.6 9
    endloop
  endfacet
  facet normal 0 0 1
    outer loop
      vertex 57.5 1.6 9
      vertex 47.9 0.7 9
      vertex 58.2 0 9
    endloop
  endfacet
  facet normal -0 0 1
    outer loop
      vertex 43.9 0.7 9
      vertex 58.2 0 9
      vertex 47.9 0.7 9
    endloop
  endfacet
  facet normal 0 0 1
    outer loop
      vertex 0 0 9
      vertex 43.9 0.7 9
      vertex 1.6 1.6 9
    endloop
  endfacet
  facet normal 0 0 1
    outer loop
      vertex 43.9 0.7 9
      vertex 0 0 9
      vertex 58.2 0 9
    endloop
  endfacet
  facet normal 0 0 1
    outer loop
      vertex 0 0 9
      vertex 1.6 1.6 9
      vertex 0 29.1 9
    endloop
  endfacet
  facet normal 0 0 -1
    outer loop
      vertex 0 0 0
      vertex 23.591 12.5 0
      vertex 23.591 0 0
    endloop
  endfacet
  facet normal -0 0 -1
    outer loop
      vertex 23.591 12.5 0
      vertex 0 0 0
      vertex 23.591 16.6 0
    endloop
  endfacet
  facet normal 0 0 -1
    outer loop
      vertex 0 29.1 0
      vertex 23.591 16.6 0
      vertex 0 0 0
    endloop
  endfacet
  facet normal 0 0 -1
    outer loop
      vertex 23.591 16.6 0
      vertex 0 29.1 0
      vertex 23.591 29.1 0
    endloop
  endfacet
  facet normal 0 0 -1
    outer loop
      vertex 23.591 12.5 0
      vertex 34.609 16.6 0
      vertex 34.609 12.5 0
    endloop
  endfacet
  facet normal -0 0 -1
    outer loop
      vertex 34.609 16.6 0
      vertex 23.591 12.5 0
      vertex 23.591 16.6 0
    endloop
  endfacet
  facet normal 0 0 -1
    outer loop
      vertex 34.609 12.5 0
      vertex 58.2 0 0
      vertex 34.609 0 0
    endloop
  endfacet
  facet normal 0 0 -1
    outer loop
      vertex 58.2 0 0
      vertex 34.609 12.5 0
      vertex 58.2 29.1 0
    endloop
  endfacet
  facet normal 0 0 -1
    outer loop
      vertex 34.609 16.6 0
      vertex 58.2 29.1 0
      vertex 34.609 12.5 0
    endloop
  endfacet
  facet normal -0 0 -1
    outer loop
      vertex 58.2 29.1 0
      vertex 34.609 16.6 0
      vertex 34.609 29.1 0
    endloop
  endfacet
  facet normal -1 0 0
    outer loop
      vertex 0 0 0
      vertex 0 29.1 9
      vertex 0 29.1 0
    endloop
  endfacet
  facet normal -1 -0 0
    outer loop
      vertex 0 29.1 9
      vertex 0 0 0
      vertex 0 0 9
    endloop
  endfacet
  facet normal 0 1 0
    outer loop
      vertex 58.2 29.1 9
      vertex 49.47 29.1 7.79397
      vertex 0 29.1 9
    endloop
  endfacet
  facet normal 0 1 0
    outer loop
      vertex 58.2 29.1 9
      vertex 49.47 29.1 6.60603
      vertex 49.47 29.1 7.79397
    endloop
  endfacet
  facet normal 0 1 0
    outer loop
      vertex 49.47 29.1 6.60603
      vertex 36.4 29.1 2
      vertex 8.73 29.1 6.60603
    endloop
  endfacet
  facet normal 0 1 -0
    outer loop
      vertex 58.2 29.1 0
      vertex 49.47 29.1 6.60603
      vertex 58.2 29.1 9
    endloop
  endfacet
  facet normal 0 1 0
    outer loop
      vertex 49.47 29.1 6.60603
      vertex 58.2 29.1 0
      vertex 36.4 29.1 2
    endloop
  endfacet
  facet normal 0 1 0
    outer loop
      vertex 36.4 29.1 2
      vertex 58.2 29.1 0
      vertex 34.609 29.1 0
    endloop
  endfacet
  facet normal 0 1 -0
    outer loop
      vertex 8.73 29.1 7.79397
      vertex 0 29.1 9
      vertex 49.47 29.1 7.79397
    endloop
  endfacet
  facet normal 0 1 -0
    outer loop
      vertex 8.73 29.1 6.60603
      vertex 0 29.1 9
      vertex 8.73 29.1 7.79397
    endloop
  endfacet
  facet normal 0 1 -0
    outer loop
      vertex 21.8 29.1 2
      vertex 8.73 29.1 6.60603
      vertex 36.4 29.1 2
    endloop
  endfacet
  facet normal 0 1 0
    outer loop
      vertex 0 29.1 0
      vertex 8.73 29.1 6.60603
      vertex 21.8 29.1 2
    endloop
  endfacet
  facet normal 0 1 0
    outer loop
      vertex 0 29.1 0
      vertex 21.8 29.1 2
      vertex 23.591 29.1 0
    endloop
  endfacet
  facet normal 0 1 0
    outer loop
      vertex 8.73 29.1 6.60603
      vertex 0 29.1 0
      vertex 0 29.1 9
    endloop
  endfacet
  facet normal 0 -1 0
    outer loop
      vertex 0 0 9
      vertex 8.73 0 7.79397
      vertex 58.2 0 9
    endloop
  endfacet
  facet normal 0 -1 0
    outer loop
      vertex 0 0 9
      vertex 8.73 0 6.60603
      vertex 8.73 0 7.79397
    endloop
  endfacet
  facet normal 0 -1 0
    outer loop
      vertex 8.73 0 6.60603
      vertex 21.8 0 2
      vertex 49.47 0 6.60603
    endloop
  endfacet
  facet normal 0 -1 0
    outer loop
      vertex 0 0 0
      vertex 8.73 0 6.60603
      vertex 0 0 9
    endloop
  endfacet
  facet normal 0 -1 -0
    outer loop
      vertex 8.73 0 6.60603
      vertex 0 0 0
      vertex 21.8 0 2
    endloop
  endfacet
  facet normal 0 -1 -0
    outer loop
      vertex 21.8 0 2
      vertex 0 0 0
      vertex 23.591 0 0
    endloop
  endfacet
  facet normal 0 -1 0
    outer loop
      vertex 49.47 0 7.79397
      vertex 58.2 0 9
      vertex 8.73 0 7.79397
    endloop
  endfacet
  facet normal 0 -1 0
    outer loop
      vertex 49.47 0 6.60603
      vertex 58.2 0 9
      vertex 49.47 0 7.79397
    endloop
  endfacet
  facet normal 0 -1 0
    outer loop
      vertex 36.4 0 2
      vertex 49.47 0 6.60603
      vertex 21.8 0 2
    endloop
  endfacet
  facet normal 0 -1 0
    outer loop
      vertex 58.2 0 0
      vertex 49.47 0 6.60603
      vertex 36.4 0 2
    endloop
  endfacet
  facet normal 0 -1 0
    outer loop
      vertex 58.2 0 0
      vertex 36.4 0 2
      vertex 34.609 0 0
    endloop
  endfacet
  facet normal 0 -1 0
    outer loop
      vertex 49.47 0 6.60603
      vertex 58.2 0 0
      vertex 58.2 0 9
    endloop
  endfacet
  facet normal 1 -0 0
    outer loop
      vertex 1.6 1.6 9
      vertex 1.6 27.5 3.4
      vertex 1.6 27.5 9
    endloop
  endfacet
  facet normal 1 0 0
    outer loop
      vertex 1.6 27.5 3.4
      vertex 1.6 1.6 9
      vertex 1.6 1.6 3.4
    endloop
  endfacet
  facet normal 0 -1 0
    outer loop
      vertex 47.9 27.5 3.4
      vertex 56.6 27.5 9
      vertex 47.9 27.5 9
    endloop
  endfacet
  facet normal 0 -1 -0
    outer loop
      vertex 56.6 27.5 9
      vertex 47.9 27.5 3.4
      vertex 56.6 27.5 3.4
    endloop
  endfacet
  facet normal 0 -1 0
    outer loop
      vertex 1.6 27.5 3.4
      vertex 43.9 27.5 9
      vertex 1.6 27.5 9
    endloop
  endfacet
  facet normal 0 -1 -0
    outer loop
      vertex 43.9 27.5 9
      vertex 1.6 27.5 3.4
      vertex 43.9 27.5 3.4
    endloop
  endfacet
  facet normal -0 0 1
    outer loop
      vertex 56.6 18.8 5.1
      vertex 57.5 10.3 5.1
      vertex 57.5 18.8 5.1
    endloop
  endfacet
  facet normal 0 0 1
    outer loop
      vertex 57.5 10.3 5.1
      vertex 56.6 18.8 5.1
      vertex 56.6 10.3 5.1
    endloop
  endfacet
  facet normal 0 0 1
    outer loop
      vertex 57.5 18.8 5.1
      vertex 58.2 21.05 5.1
      vertex 57.5 21.05 5.1
    endloop
  endfacet
  facet normal 0 0 1
    outer loop
      vertex 58.2 21.05 5.1
      vertex 57.5 18.8 5.1
      vertex 58.2 8.05 5.1
    endloop
  endfacet
  facet normal -0 0 1
    outer loop
      vertex 57.5 10.3 5.1
      vertex 58.2 8.05 5.1
      vertex 57.5 18.8 5.1
    endloop
  endfacet
  facet normal 0 0 1
    outer loop
      vertex 58.2 8.05 5.1
      vertex 57.5 10.3 5.1
      vertex 57.5 8.05 5.1
    endloop
  endfacet
  facet normal 0 -1 0
    outer loop
      vertex 57.5 21.05 5.1
      vertex 58.2 21.05 9
      vertex 57.5 21.05 9
    endloop
  endfacet
  facet normal 0 -1 -0
    outer loop
      vertex 58.2 21.05 9
      vertex 57.5 21.05 5.1
      vertex 58.2 21.05 5.1
    endloop
  endfacet
  facet normal 0 1 -0
    outer loop
      vertex 58.2 8.05 5.1
      vertex 57.5 8.05 9
      vertex 58.2 8.05 9
    endloop
  endfacet
  facet normal 0 1 0
    outer loop
      vertex 57.5 8.05 9
      vertex 58.2 8.05 5.1
      vertex 57.5 8.05 5.1
    endloop
  endfacet
  facet normal -0 0 1
    outer loop
      vertex 56.6 10.3 3.9
      vertex 57.5 1.6 3.9
      vertex 57.5 10.3 3.9
    endloop
  endfacet
  facet normal 0 0 1
    outer loop
      vertex 52.6 1.6 3.9
      vertex 56.6 10.3 3.9
      vertex 52.6 10.3 3.9
    endloop
  endfacet
  facet normal 0 0 1
    outer loop
      vertex 56.6 10.3 3.9
      vertex 52.6 1.6 3.9
      vertex 57.5 1.6 3.9
    endloop
  endfacet
  facet normal -1 0 0
    outer loop
      vertex 52.6 1.6 3.4
      vertex 52.6 10.3 3.9
      vertex 52.6 10.3 3.4
    endloop
  endfacet
  facet normal -1 -0 0
    outer loop
      vertex 52.6 10.3 3.9
      vertex 52.6 1.6 3.4
      vertex 52.6 1.6 3.9
    endloop
  endfacet
  facet normal -0 0 1
    outer loop
      vertex 56.6 27.5 3.9
      vertex 57.5 18.8 3.9
      vertex 57.5 27.5 3.9
    endloop
  endfacet
  facet normal 0 0 1
    outer loop
      vertex 56.6 27.5 3.9
      vertex 56.6 18.8 3.9
      vertex 57.5 18.8 3.9
    endloop
  endfacet
  facet normal -0 0 1
    outer loop
      vertex 52.6 27.5 3.9
      vertex 56.6 18.8 3.9
      vertex 56.6 27.5 3.9
    endloop
  endfacet
  facet normal 0 0 1
    outer loop
      vertex 56.6 18.8 3.9
      vertex 52.6 27.5 3.9
      vertex 52.6 18.8 3.9
    endloop
  endfacet
  facet normal -1 0 0
    outer loop
      vertex 52.6 18.8 3.4
      vertex 52.6 27.5 3.9
      vertex 52.6 27.5 3.4
    endloop
  endfacet
  facet normal -1 -0 0
    outer loop
      vertex 52.6 27.5 3.9
      vertex 52.6 18.8 3.4
      vertex 52.6 18.8 3.9
    endloop
  endfacet
endsolid OpenSCAD_Model
